<svg width="24" height="24" viewBox="0 0 24 24" fill="none" xmlns="http://www.w3.org/2000/svg">
<path d="M22 12C22 6.477 17.523 2 12 2C6.477 2 2 6.477 2 12C2 17.523 6.477 22 12 22" stroke="#ED6F58" stroke-width="1.5" stroke-linecap="round" stroke-linejoin="round"/>
<path d="M12.9999 2.05078C12.9999 2.05078 15.9999 6.00078 15.9999 12.0008M10.9999 21.9508C10.9999 21.9508 7.99988 18.0008 7.99988 12.0008C7.99988 6.00078 10.9999 2.05078 10.9999 2.05078M2.62988 15.5008H11.9999M2.62988 8.50078H21.3699" stroke="#ED6F58" stroke-width="1.5" stroke-linecap="round" stroke-linejoin="round"/>
<path d="M21.8792 17.9176C22.3732 18.2216 22.3422 18.9606 21.8342 19.0186L19.2672 19.3096L18.1162 21.6216C17.8882 22.0806 17.1832 21.8556 17.0662 21.2876L15.8112 15.1716C15.7122 14.6916 16.1442 14.3896 16.5612 14.6466L21.8792 17.9176V17.9176Z" stroke="#ED6F58" stroke-width="1.5"/>
</svg>
