<svg width="30" height="30" viewBox="0 0 30 30" fill="none" xmlns="http://www.w3.org/2000/svg">
<g clip-path="url(#clip0_4563_9670)">
<path d="M18.75 18.75V15.9375C18.75 14.9429 18.3549 13.9891 17.6516 13.2858C16.9484 12.5826 15.9946 12.1875 15 12.1875C14.0054 12.1875 13.0516 12.5826 12.3483 13.2858C11.6451 13.9891 11.25 14.9429 11.25 15.9375V18.75C10.7529 18.7505 10.2762 18.9482 9.92472 19.2997C9.5732 19.6512 9.3755 20.1279 9.375 20.625V26.25C9.3755 26.7471 9.5732 27.2238 9.92472 27.5753C10.2762 27.9268 10.7529 28.1245 11.25 28.125H18.75C19.2471 28.1245 19.7238 27.9268 20.0753 27.5753C20.4268 27.2238 20.6245 26.7471 20.625 26.25V20.625C20.6245 20.1279 20.4268 19.6512 20.0753 19.2997C19.7238 18.9482 19.2471 18.7505 18.75 18.75V18.75ZM13.125 15.9375C13.125 15.4402 13.3225 14.9633 13.6742 14.6117C14.0258 14.26 14.5027 14.0625 15 14.0625C15.4973 14.0625 15.9742 14.26 16.3258 14.6117C16.6775 14.9633 16.875 15.4402 16.875 15.9375V18.75H13.125V15.9375ZM11.25 26.25V20.625H18.75L18.7509 26.25H11.25Z" fill="#303236"/>
<path d="M24.2148 9.48251C23.8597 7.6409 22.9608 5.94799 21.6341 4.6223C20.3074 3.2966 18.6138 2.39899 16.772 2.04532C15.5621 1.81153 14.3181 1.81849 13.1109 2.0658C11.9038 2.31311 10.7572 2.79592 9.73678 3.48663C8.71635 4.17734 7.84205 5.0624 7.16389 6.09122C6.48572 7.12003 6.01699 8.27242 5.78447 9.48251C4.05625 9.79404 2.50709 10.7408 1.44159 12.1367C0.37609 13.5326 -0.128664 15.2766 0.0265719 17.0258C0.181808 18.775 0.985804 20.4028 2.28048 21.5893C3.57515 22.7757 5.26684 23.4349 7.02291 23.4372H7.5001V21.5622H7.02666C5.7393 21.5598 4.49936 21.0762 3.55042 20.2062C2.60148 19.3363 2.01215 18.1429 1.89821 16.8606C1.78426 15.5783 2.15393 14.2998 2.93461 13.2761C3.71528 12.2525 4.85051 11.5578 6.11728 11.3284L7.38291 11.0988L7.62572 9.83782C7.95572 8.12408 8.87232 6.5788 10.218 5.46752C11.5637 4.35625 13.2544 3.74838 14.9996 3.74838C16.7448 3.74838 18.4356 4.35625 19.7813 5.46752C21.1269 6.5788 22.0435 8.12408 22.3735 9.83782L22.6163 11.0988L23.881 11.3284C25.1474 11.5577 26.2824 12.252 27.063 13.2752C27.8437 14.2983 28.2137 15.5763 28.1004 16.8583C27.9871 18.1403 27.3986 19.3336 26.4505 20.2039C25.5025 21.0742 24.2633 21.5587 22.9763 21.5622H22.5001V23.4372H22.9763C24.7323 23.4347 26.4239 22.7753 27.7184 21.5888C29.0129 20.4023 29.8167 18.7745 29.9718 17.0253C30.1269 15.2762 29.6221 13.5323 28.5566 12.1365C27.4911 10.7407 25.942 9.79402 24.2138 9.48251H24.2148Z" fill="#303236"/>
</g>
<defs>
<clipPath id="clip0_4563_9670">
<rect width="30" height="30" fill="white"/>
</clipPath>
</defs>
</svg>
