<svg width="30" height="30" viewBox="0 0 30 30" fill="none" xmlns="http://www.w3.org/2000/svg">
<path d="M26.25 19.6875V16.875C26.25 15.8804 25.8549 14.9266 25.1516 14.2233C24.4484 13.5201 23.4946 13.125 22.5 13.125C21.5054 13.125 20.5516 13.5201 19.8484 14.2233C19.1451 14.9266 18.75 15.8804 18.75 16.875V19.6875C18.2529 19.688 17.7762 19.8857 17.4247 20.2372C17.0732 20.5887 16.8755 21.0654 16.875 21.5625V26.25C16.8755 26.7471 17.0732 27.2238 17.4247 27.5753C17.7762 27.9268 18.2529 28.1245 18.75 28.125H26.25C26.7471 28.1245 27.2238 27.9268 27.5753 27.5753C27.9268 27.2238 28.1245 26.7471 28.125 26.25V21.5625C28.1245 21.0654 27.9268 20.5887 27.5753 20.2372C27.2238 19.8857 26.7471 19.688 26.25 19.6875ZM20.625 16.875C20.625 16.3777 20.8225 15.9008 21.1742 15.5492C21.5258 15.1975 22.0027 15 22.5 15C22.9973 15 23.4742 15.1975 23.8258 15.5492C24.1775 15.9008 24.375 16.3777 24.375 16.875V19.6875H20.625V16.875ZM18.75 26.25V21.5625H26.25V26.25H18.75Z" fill="#303236"/>
<path d="M22.0303 8.51719L15.6628 2.14969C15.487 1.97386 15.2486 1.87505 15 1.875H5.625C5.12818 1.87648 4.65212 2.0745 4.30081 2.42581C3.9495 2.77712 3.75148 3.25318 3.75 3.75V26.25C3.75148 26.7468 3.9495 27.2229 4.30081 27.5742C4.65212 27.9255 5.12818 28.1235 5.625 28.125H13.125V26.25H5.625V3.75H13.125V9.375C13.1255 9.87213 13.3232 10.3488 13.6747 10.7003C14.0262 11.0518 14.5029 11.2495 15 11.25H20.8987C21.2152 11.2497 21.5246 11.1557 21.7876 10.9797C22.0507 10.8037 22.2557 10.5538 22.3768 10.2613C22.4979 9.96892 22.5296 9.64717 22.4679 9.33674C22.4063 9.02631 22.254 8.74112 22.0303 8.51719V8.51719ZM15 9.375V4.13813L20.2359 9.375H15Z" fill="#303236"/>
</svg>
