<svg width="30" height="30" viewBox="0 0 30 30" fill="none" xmlns="http://www.w3.org/2000/svg">
<path fill-rule="evenodd" clip-rule="evenodd" d="M9.375 10.625C9.375 9.13316 9.96763 7.70242 11.0225 6.64752C12.0774 5.59263 13.5082 5 15 5C16.4918 5 17.9226 5.59263 18.9775 6.64752C20.0324 7.70242 20.625 9.13316 20.625 10.625V11.25H21.875V10.625C21.875 6.82813 18.7969 3.75 15 3.75C11.2031 3.75 8.125 6.82813 8.125 10.625V11.25H9.375V10.625ZM19.375 11.25V10.625C19.375 10.0505 19.2618 9.48156 19.042 8.95076C18.8221 8.41996 18.4998 7.93766 18.0936 7.53141C17.6873 7.12515 17.205 6.80289 16.6742 6.58303C16.1434 6.36316 15.5745 6.25 15 6.25C14.4255 6.25 13.8566 6.36316 13.3258 6.58303C12.795 6.80289 12.3127 7.12515 11.9064 7.53141C11.5002 7.93766 11.1779 8.41996 10.958 8.95076C10.7382 9.48156 10.625 10.0505 10.625 10.625V11.25H11.875V10.625C11.875 9.7962 12.2042 9.00134 12.7903 8.41529C13.3763 7.82924 14.1712 7.5 15 7.5C15.8288 7.5 16.6237 7.82924 17.2097 8.41529C17.7958 9.00134 18.125 9.7962 18.125 10.625V11.25H19.375ZM10.625 12.5H23.125V25H6.875V12.5H9.375V11.25H6.875C6.54348 11.25 6.22554 11.3817 5.99112 11.6161C5.7567 11.8505 5.625 12.1685 5.625 12.5V25C5.625 25.3315 5.7567 25.6495 5.99112 25.8839C6.22554 26.1183 6.54348 26.25 6.875 26.25H23.125C23.4565 26.25 23.7745 26.1183 24.0089 25.8839C24.2433 25.6495 24.375 25.3315 24.375 25V12.5C24.375 12.1685 24.2433 11.8505 24.0089 11.6161C23.7745 11.3817 23.4565 11.25 23.125 11.25H10.625V12.5Z" fill="#303236"/>
<path fill-rule="evenodd" clip-rule="evenodd" d="M20.625 16.25H9.375V15H20.625V16.25ZM20.625 19.375H9.375V18.125H20.625V19.375ZM20.625 22.5H9.375V21.25H20.625V22.5Z" fill="#303236"/>
</svg>
